<?xml version="1.0" ?><svg height="512" id="svg2" version="1.1" width="512" xmlns="http://www.w3.org/2000/svg" xmlns:cc="http://creativecommons.org/ns#" xmlns:dc="http://purl.org/dc/elements/1.1/" xmlns:inkscape="http://www.inkscape.org/namespaces/inkscape" xmlns:rdf="http://www.w3.org/1999/02/22-rdf-syntax-ns#" xmlns:sodipodi="http://sodipodi.sourceforge.net/DTD/sodipodi-0.dtd" xmlns:svg="http://www.w3.org/2000/svg"><defs id="defs4"/><g id="layer1" transform="translate(0,-540.36218)"><g id="g4305"><g id="g4345" transform="translate(28,-40.00001)"><g id="text2994" style="font-size:550px;font-style:normal;font-variant:normal;font-weight:normal;font-stretch:normal;text-align:start;line-height:125%;letter-spacing:0px;word-spacing:0px;writing-mode:lr-tb;text-anchor:start;fill:#222222;fill-opacity:1;stroke:none;font-family:Ubuntu;-inkscape-font-specification:Ubuntu"><path d="m 222.80013,974.96082 c -2.93804,-9.60286 -6.20545,-19.4702 -9.80224,-29.60206 -3.59721,-10.13179 -7.12911,-20.26362 -10.59571,-30.3955 l -108.007813,0 c -3.466882,10.13188 -6.99878,20.26371 -10.595703,30.3955 -3.59708,10.13186 -6.864492,19.9992 -9.802246,29.60206 l -64.7949219,0 c 10.4003769,-29.86651 20.2656819,-57.46658 29.5959479,-82.8003 9.330198,-25.33355 18.463082,-49.2003 27.398681,-71.60034 8.935477,-22.39972 17.736738,-43.66639 26.403809,-63.80005 8.666896,-20.13322 17.667546,-39.79873 27.001956,-58.99658 l 59.59473,0 c 9.06557,19.19785 17.99907,38.86336 26.80053,58.99658 8.80106,20.13366 17.66743,41.40033 26.59913,63.80005 8.93124,22.40004 18.06412,46.26679 27.39868,71.60034 9.33404,25.33372 19.20138,52.93379 29.60205,82.8003 z m -74.80468,-214.4043 c -1.33478,4.00412 -3.3347,9.47286 -5.99976,16.40625 -2.66534,6.93378 -5.73133,14.93345 -9.198,23.99902 -3.46692,9.06592 -7.26737,19.06551 -11.40137,29.99878 -4.13422,10.93357 -8.33344,22.40206 -12.59765,34.40552 l 78.79638,0 c -4.2645,-12.00346 -8.39657,-23.47195 -12.39624,-34.40552 -4,-10.93327 -7.80045,-20.93286 -11.40136,-29.99878 -3.60123,-9.06557 -6.73437,-17.06524 -9.39942,-23.99902 -2.66534,-6.93339 -4.79954,-12.40213 -6.40258,-16.40625 z" id="path4467" style="font-size:400px;font-weight:bold;fill:#222222;fill-opacity:1;stroke:none;font-family:Ubuntu;-inkscape-font-specification:Ubuntu Bold"/><path d="m 326.79851,636.36218 0,40 40,0 0,320 -40,0 0,40.00002 120,0 0,-40.00002 -39.5625,0 0,-320 39.5625,0 0,-40 -120,0 z" id="rect4427" style="color:#000000;fill:#000000;fill-opacity:1;fill-rule:nonzero;stroke:none;stroke-width:80;marker:none;visibility:visible;display:inline;overflow:visible;enable-background:accumulate"/></g></g></g></g></svg>
